<?xml version="1.0" standalone="no"?>
<!DOCTYPE svg PUBLIC "-//W3C//DTD SVG 20010904//EN"
 "http://www.w3.org/TR/2001/REC-SVG-20010904/DTD/svg10.dtd">
<svg version="1.0" xmlns="http://www.w3.org/2000/svg"
 width="700.000000pt" height="700.000000pt" viewBox="0 0 700.000000 700.000000"
 preserveAspectRatio="xMidYMid meet">
<metadata>
Created by potrace 1.14, written by Peter Selinger 2001-2017
</metadata>
<g transform="translate(0.000000,700.000000) scale(0.100000,-0.100000)"
fill="#000000" stroke="none">
<path d="M1410 5910 c0 -22 3 -41 8 -41 4 -1 171 -2 372 -3 l365 -1 0 -2280
c1 -1254 -1 -2287 -3 -2295 -3 -14 -45 -16 -355 -15 -194 1 -360 -1 -369 -3
-13 -3 -18 -14 -18 -43 l0 -39 2040 0 c1625 0 2040 3 2041 13 6 59 3 1426 -2
1438 -6 11 -17 14 -38 11 -17 -2 -31 -7 -32 -11 -5 -42 -50 -206 -85 -310
-154 -453 -392 -753 -730 -920 -96 -47 -150 -65 -274 -90 -196 -40 -257 -43
-922 -45 l-588 -2 0 2296 0 2295 367 0 367 0 6 25 c4 14 4 33 2 43 -4 16 -64
17 -1078 17 l-1074 0 0 -40z m1065 -52 c7 -4 10 -777 9 -2290 -1 -1255 -2
-2286 -3 -2289 -1 -3 -54 -5 -118 -5 l-118 1 -3 2285 c-1 1257 0 2290 2 2295
4 12 214 15 231 3z m2809 -4250 c-1 -178 -2 -325 -3 -328 -1 -3 -163 -6 -360
-6 l-360 0 88 46 c177 94 327 215 470 380 17 19 59 79 93 132 35 53 65 97 68
98 3 0 4 -145 4 -322z"/>
</g>
</svg>
