<svg fill="none" xmlns="http://www.w3.org/2000/svg" viewBox="0 0 1920 848">
  <defs/>
  <path fill="#fff" d="M0 0h1920v848H0z"/>
  <path stroke="#E1E8EE" stroke-width="3" d="M302.5 46.5h1296v758h-1296z"/>
  <path d="M651.907 571.75c13.95 0 23.55-9.075 23.55-25.725v-1.65c0-17.175-9.375-25.725-23.1-25.725-14.025 0-23.55 9.15-23.55 25.725v1.65c0 17.025 9.225 25.725 23.1 25.725zm.3-7.125c-9.825 0-13.575-7.05-13.575-18.675v-2.625c0-10.425 4.35-17.475 13.275-17.475 9.975.075 13.725 7.05 13.725 18.6V547c0 10.5-4.425 17.625-13.425 17.625zm32.765 6.3h9.225V551.65h9.375c10.725 0 17.55-5.625 17.55-16.35 0-10.2-6.075-15.825-18.15-15.825h-18v51.45zm9.225-26.175V526.6h7.8c6.825 0 9.45 2.475 9.45 9.225 0 6-2.625 8.925-9.6 8.925h-7.65zm75.63 27c13.95 0 23.55-9.075 23.55-25.725v-1.65c0-17.175-9.375-25.725-23.1-25.725-14.025 0-23.55 9.15-23.55 25.725v1.65c0 17.025 9.225 25.725 23.1 25.725zm.3-7.125c-9.825 0-13.575-7.05-13.575-18.675v-2.625c0-10.425 4.35-17.475 13.275-17.475 9.975.075 13.725 7.05 13.725 18.6V547c0 10.5-4.425 17.625-13.425 17.625zm32.765 6.3h8.175V532.15h.225l22.575 38.775h9.15v-51.45h-8.175v36.3h-.225l-21.375-36.3h-10.35v51.45zm49.072 0h36.075v-7.275h-25.275v-.3l25.95-37.2v-6.675h-34.95v7.275h24.075v.225l-25.875 37.2v6.75zm45.777 0h32.55v-7.275h-23.325v-15.6h17.775v-7.2h-17.775v-14.1h22.875v-7.275h-32.1v51.45zm76.193 0h9.15l18.146-51.45h-8.621l-13.425 39.75h-.225l-13.5-39.75h-9.675l18.15 51.45zm55.166.825c13.95 0 23.55-9.075 23.55-25.725v-1.65c0-17.175-9.37-25.725-23.1-25.725-14.02 0-23.55 9.15-23.55 25.725v1.65c0 17.025 9.23 25.725 23.1 25.725zm.3-7.125c-9.82 0-13.57-7.05-13.57-18.675v-2.625c0-10.425 4.35-17.475 13.27-17.475 9.98.075 13.73 7.05 13.73 18.6V547c0 10.5-4.43 17.625-13.43 17.625zm32.77 6.3h30.97v-7.275h-21.75v-44.175h-9.22v51.45zm39.55 0h30.98v-7.275h-21.75v-44.175h-9.23v51.45zm39.55 0h32.55v-7.275h-23.32v-15.6h17.77v-7.2h-17.77v-14.1h22.87v-7.275h-32.1v51.45zm43.07 0h16.95c16.5 0 24.52-9.075 24.52-25.575v-1.5c0-16.8-8.85-24.375-24.6-24.375h-16.87v51.45zm9.22-7.275v-36.9h7.13c9.75 0 15.37 4.05 15.37 17.025v2.475c0 12.45-4.65 17.4-14.7 17.4h-7.8zm41.98 7.275h9.3v-51.45h-9.3v51.45zm43.72.825c6.9 0 12.9-1.575 16.8-3.15v-23.85h-18.52v6.9h9.52v11.7c-1.87.6-4.87 1.125-7.87 1.125-12.08 0-14.85-7.575-14.85-18.225v-2.325c0-9.675 3.6-17.775 15.67-17.775 6.83 0 10.8 1.5 13.88 2.85v-7.35c-3-1.575-7.5-3-14.1-3-13.35 0-25.2 6.45-25.2 26.025v1.575c0 18.075 9.6 25.5 24.67 25.5zm27.39-.825h32.55v-7.275h-23.32v-15.6h17.77v-7.2h-17.77v-14.1h22.87v-7.275h-32.1v51.45zM826.225 661.75c6.15 0 10.875-1.275 14.4-3.15v-7.125c-3.075 1.275-6.825 2.775-12.675 2.775-10.8 0-14.925-6.675-14.925-18.45v-2.625c0-12.225 5.925-17.025 14.85-17.025 4.725 0 8.25.825 12.225 2.4v-7.2c-3.15-1.725-7.2-2.7-12.9-2.7-13.35 0-24.15 6.975-24.15 25.5v1.875c0 17.325 8.85 25.725 23.175 25.725zm43.87 0c13.95 0 23.55-9.075 23.55-25.725v-1.65c0-17.175-9.375-25.725-23.1-25.725-14.025 0-23.55 9.15-23.55 25.725v1.65c0 17.025 9.225 25.725 23.1 25.725zm.3-7.125c-9.825 0-13.575-7.05-13.575-18.675v-2.625c0-10.425 4.35-17.475 13.275-17.475 9.975.075 13.725 7.05 13.725 18.6V637c0 10.5-4.425 17.625-13.425 17.625zm32.765 6.3h30.975v-7.275h-21.75v-44.175h-9.225v51.45zm39.551 0h30.975v-7.275h-21.75v-44.175h-9.225v51.45zm39.551 0h32.548v-7.275h-23.323v-15.6h17.773v-7.2h-17.773v-14.1h22.873v-7.275h-32.098v51.45zm62.008.825c6.15 0 10.87-1.275 14.4-3.15v-7.125c-3.08 1.275-6.83 2.775-12.68 2.775-10.8 0-14.92-6.675-14.92-18.45v-2.625c0-12.225 5.92-17.025 14.85-17.025 4.72 0 8.25.825 12.22 2.4v-7.2c-3.15-1.725-7.2-2.7-12.9-2.7-13.35 0-24.15 6.975-24.15 25.5v1.875c0 17.325 8.85 25.725 23.18 25.725zm34.12-.825h9.22V616.75h14.63v-7.275h-38.63v7.275h14.78v44.175zm32.34 0h9.3v-51.45h-9.3v51.45zm21.68 0h32.55v-7.275h-23.33v-15.6h17.78v-7.2h-17.78v-14.1h22.88v-7.275h-32.1v51.45zM658.6 339.8h99V320h-99v19.8zm150.307 88.8h22.8V222.8h-12.6l-47.4 22.2v13.8l37.2-8.7v178.5zm118.927 2.4c44.4 0 70.8-30.3 70.8-66.3 0-42.3-24.9-61.5-65.4-61.5-8.4 0-20.7 2.1-28.8 4.2l4.2-61.2h82.8v-20.4h-102l-7.2 105.6c9.3-4.2 28.2-9.9 42-9.9 31.5 0 49.5 12.3 49.5 42.9 0 28.5-18.6 46.5-50.4 46.5-16.5 0-36.3-6.9-47.4-14.4l-4.5 19.2c12 8.7 33 15.3 56.4 15.3zm139.016-98.1c28.5 0 46.2-21.9 46.2-53.7v-4.8c0-31.8-17.7-51.6-46.2-51.6-28.5 0-46.2 21.9-46.2 53.4v4.8c0 32.4 17.7 51.9 46.2 51.9zm129.6 96.9c28.5 0 45.9-21.9 45.9-53.7v-4.8c0-31.8-17.4-51.6-45.9-51.6s-46.8 21.9-46.8 53.7v4.5c0 32.1 18.3 51.9 46.8 51.9zm-145.8 9h20.1l139.2-218.4h-20.1l-139.2 218.4zm145.8-24.3c-16.8 0-26.1-11.1-26.1-36.6V371c0-24.3 9.9-36 26.1-36 15.6 0 24.9 12 24.9 36.3v6.9c0 25.2-9 36.3-24.9 36.3zm-129.6-96.6c-15.9 0-25.5-11.4-25.5-36.9v-6.9c0-24.6 9.9-36 25.5-36 16.2 0 25.8 11.7 25.8 36.3v6.9c0 25.2-9 36.6-25.8 36.6z" fill="#F94F0D"/>
</svg>
