<svg fill="none" xmlns="http://www.w3.org/2000/svg" viewBox="0 0 1501 1900">
  <defs/>
  <path d="M0 0h1501v1900H0V0z" fill="#fff"/>
  <path d="M306.543 1080c18.6 0 31.4-12.1 31.4-34.3v-2.2c0-22.9-12.5-34.3-30.8-34.3-18.7 0-31.4 12.2-31.4 34.3v2.2c0 22.7 12.3 34.3 30.8 34.3zm.4-9.5c-13.1 0-18.1-9.4-18.1-24.9v-3.5c0-13.9 5.8-23.3 17.7-23.3 13.3.1 18.3 9.4 18.3 24.8v3.4c0 14-5.9 23.5-17.9 23.5zm43.686 8.4h12.3v-25.7h12.5c14.3 0 23.4-7.5 23.4-21.8 0-13.6-8.1-21.1-24.2-21.1h-24v68.6zm12.3-34.9v-24.2h10.4c9.1 0 12.6 3.3 12.6 12.3 0 8-3.5 11.9-12.8 11.9h-10.2zm100.84 36c18.6 0 31.4-12.1 31.4-34.3v-2.2c0-22.9-12.5-34.3-30.8-34.3-18.7 0-31.4 12.2-31.4 34.3v2.2c0 22.7 12.3 34.3 30.8 34.3zm.4-9.5c-13.1 0-18.1-9.4-18.1-24.9v-3.5c0-13.9 5.8-23.3 17.7-23.3 13.3.1 18.3 9.4 18.3 24.8v3.4c0 14-5.9 23.5-17.9 23.5zm43.687 8.4h10.9v-51.7h.3l30.1 51.7h12.2v-68.6h-10.9v48.4h-.3l-28.5-48.4h-13.8v68.6zm65.429 0h48.1v-9.7h-33.7v-.4l34.6-49.6v-8.9h-46.6v9.7h32.1v.3l-34.5 49.6v9zm61.036 0h43.4v-9.7h-31.1v-20.8h23.7v-9.6h-23.7V1020h30.5v-9.7h-42.8v68.6zm101.591 0h12.2l24.2-68.6h-11.5l-17.9 53h-.3l-18-53h-12.9l24.2 68.6zm73.56 1.1c18.6 0 31.4-12.1 31.4-34.3v-2.2c0-22.9-12.5-34.3-30.8-34.3-18.7 0-31.4 12.2-31.4 34.3v2.2c0 22.7 12.3 34.3 30.8 34.3zm.4-9.5c-13.1 0-18.1-9.4-18.1-24.9v-3.5c0-13.9 5.8-23.3 17.7-23.3 13.3.1 18.3 9.4 18.3 24.8v3.4c0 14-5.9 23.5-17.9 23.5zm43.687 8.4h41.3v-9.7h-29v-58.9h-12.3v68.6zm52.734 0h41.3v-9.7h-29v-58.9h-12.3v68.6zm52.735 0h43.402v-9.7h-31.102v-20.8h23.7v-9.6h-23.7V1020h30.502v-9.7h-42.802v68.6zm57.422 0h22.6c22 0 32.7-12.1 32.7-34.1v-2c0-22.4-11.8-32.5-32.8-32.5h-22.5v68.6zm12.3-9.7V1020h9.5c13 0 20.5 5.4 20.5 22.7v3.3c0 16.6-6.2 23.2-19.6 23.2h-10.4zm55.97 9.7h12.4v-68.6h-12.4v68.6zm58.3 1.1c9.2 0 17.2-2.1 22.4-4.2V1044h-24.7v9.2h12.7v15.6c-2.5.8-6.5 1.5-10.5 1.5-16.1 0-19.8-10.1-19.8-24.3v-3.1c0-12.9 4.8-23.7 20.9-23.7 9.1 0 14.4 2 18.5 3.8v-9.8c-4-2.1-10-4-18.8-4-17.8 0-33.6 8.6-33.6 34.7v2.1c0 24.1 12.8 34 32.9 34zm36.52-1.1h43.4v-9.7h-31.1v-20.8h23.7v-9.6h-23.7V1020h30.5v-9.7h-42.8v68.6zM538.967 1200c8.2 0 14.5-1.7 19.2-4.2v-9.5c-4.1 1.7-9.1 3.7-16.9 3.7-14.4 0-19.9-8.9-19.9-24.6v-3.5c0-16.3 7.9-22.7 19.8-22.7 6.3 0 11 1.1 16.3 3.2v-9.6c-4.2-2.3-9.6-3.6-17.2-3.6-17.8 0-32.2 9.3-32.2 34v2.5c0 23.1 11.8 34.3 30.9 34.3zm58.494 0c18.6 0 31.4-12.1 31.4-34.3v-2.2c0-22.9-12.5-34.3-30.8-34.3-18.7 0-31.4 12.2-31.4 34.3v2.2c0 22.7 12.3 34.3 30.8 34.3zm.4-9.5c-13.1 0-18.1-9.4-18.1-24.9v-3.5c0-13.9 5.8-23.3 17.7-23.3 13.3.1 18.3 9.4 18.3 24.8v3.4c0 14-5.9 23.5-17.9 23.5zm43.686 8.4h41.3v-9.7h-29v-58.9h-12.3v68.6zm52.735 0h41.3v-9.7h-29v-58.9h-12.3v68.6zm52.734 0h43.4v-9.7h-31.1v-20.8h23.7v-9.6h-23.7V1140h30.5v-9.7h-42.8v68.6zm82.673 1.1c8.2 0 14.5-1.7 19.2-4.2v-9.5c-4.1 1.7-9.1 3.7-16.9 3.7-14.4 0-19.9-8.9-19.9-24.6v-3.5c0-16.3 7.9-22.7 19.8-22.7 6.3 0 11 1.1 16.3 3.2v-9.6c-4.2-2.3-9.6-3.6-17.2-3.6-17.8 0-32.2 9.3-32.2 34v2.5c0 23.1 11.8 34.3 30.9 34.3zm45.494-1.1h12.3V1140h19.5v-9.7h-51.5v9.7h19.7v58.9zm43.129 0h12.4v-68.6h-12.4v68.6zm28.899 0h43.4v-9.7h-31.1v-20.8h23.7v-9.6h-23.7V1140h30.5v-9.7h-42.8v68.6zM415.2 771.1h115.5V748H415.2v23.1zm175.358 103.6h26.6V634.6h-14.7l-55.3 25.9v16.1l43.4-10.15V874.7zm138.748 2.8c51.8 0 82.6-35.35 82.6-77.35 0-49.35-29.05-71.75-76.3-71.75-9.8 0-24.15 2.45-33.6 4.9l4.9-71.4h96.6v-23.8h-119l-8.4 123.2c10.85-4.9 32.9-11.55 49-11.55 36.75 0 57.75 14.35 57.75 50.05 0 33.25-21.7 54.25-58.8 54.25-19.25 0-42.35-8.05-55.3-16.8l-5.25 22.4c14 10.15 38.5 17.85 65.8 17.85zm162.189-114.45c33.25 0 53.9-25.55 53.9-62.65v-5.6c0-37.1-20.65-60.2-53.9-60.2s-53.9 25.55-53.9 62.3v5.6c0 37.8 20.65 60.55 53.9 60.55zM1042.7 876.1c33.25 0 53.55-25.55 53.55-62.65v-5.6c0-37.1-20.3-60.2-53.55-60.2s-54.605 25.55-54.605 62.65v5.25c0 37.45 21.355 60.55 54.605 60.55zm-170.105 10.5h23.45l162.405-254.8H1035L872.595 886.6zm170.105-28.35c-19.6 0-30.45-12.95-30.45-42.7v-8.05c0-28.35 11.55-42 30.45-42 18.2 0 29.05 14 29.05 42.35v8.05c0 29.4-10.5 42.35-29.05 42.35zm-151.205-112.7c-18.55 0-29.75-13.3-29.75-43.05v-8.05c0-28.7 11.55-42 29.75-42 18.9 0 30.1 13.65 30.1 42.35v8.05c0 29.4-10.5 42.7-30.1 42.7z" fill="#F94F0D"/>
  <path stroke="#E1E8EE" stroke-width="3" d="M113.5 157.5h1258v1597h-1258z"/>
</svg>
