<svg width="672" height="115" viewBox="0 0 672 115" fill="none" xmlns="http://www.w3.org/2000/svg">
<path d="M0.6 111.32H13.92V29.24H0.6V27.56H39.24V29.24H25.92V111.32H47.28C54.32 111.32 59.84 109.12 63.84 104.72C67.84 100.32 70.76 94.32 72.6 86.72H73.92V113H0.6V111.32ZM118.028 41.36L104.828 76.28H131.228L118.028 41.36ZM79.0284 111.32H89.5884L121.988 25.4H124.868L157.508 111.32H168.188V113H131.228V111.32H144.548L131.948 77.96H104.108L91.5084 111.32H104.828V113H79.0284V111.32ZM160.091 27.56H197.171V29.24H183.851L210.491 98.84L236.771 29.24H223.691V27.56H249.611V29.24H238.811L206.531 114.8H203.531L170.891 29.24H160.091V27.56ZM273.653 41.36L260.453 76.28H286.853L273.653 41.36ZM234.653 111.32H245.213L277.613 25.4H280.493L313.133 111.32H323.813V113H286.853V111.32H300.173L287.573 77.96H259.733L247.133 111.32H260.453V113H234.653V111.32ZM326.239 111.32H339.559V29.24H326.239V27.56H351.919L392.479 92.96H392.719V29.24H379.399V27.56H407.839V29.24H394.519V114.68H392.119L341.599 34.16H341.359V111.32H354.679V113H326.239V111.32ZM439.24 111.32C440.6 111.48 442.16 111.6 443.92 111.68C445.76 111.76 447.76 111.8 449.92 111.8C452.64 111.8 455.32 111.68 457.96 111.44C460.68 111.12 463.24 110.52 465.64 109.64C468.12 108.68 470.4 107.36 472.48 105.68C474.64 103.92 476.56 101.64 478.24 98.84C480.8 94.52 482.56 90.12 483.52 85.64C484.56 81.08 485.08 76.12 485.08 70.76C485.08 64.44 484.48 58.72 483.28 53.6C482.08 48.4 480.08 44 477.28 40.4C474.56 36.72 470.92 33.88 466.36 31.88C461.8 29.88 456.16 28.88 449.44 28.88C447.44 28.88 445.6 28.92 443.92 29C442.32 29.08 440.76 29.16 439.24 29.24V111.32ZM413.92 111.32H427.24V29.24H413.92V27.56H436.24C437.36 27.56 438.48 27.56 439.6 27.56C440.72 27.48 441.84 27.4 442.96 27.32C444.08 27.32 445.2 27.32 446.32 27.32C447.44 27.24 448.56 27.2 449.68 27.2C452.08 27.2 454.2 27.24 456.04 27.32C457.96 27.4 459.72 27.56 461.32 27.8C463 27.96 464.56 28.24 466 28.64C467.52 28.96 469.12 29.4 470.8 29.96C475.68 31.56 479.88 33.72 483.4 36.44C487 39.08 489.92 42.16 492.16 45.68C494.48 49.2 496.16 53.04 497.2 57.2C498.32 61.36 498.88 65.72 498.88 70.28C498.88 75.56 498.24 80.32 496.96 84.56C495.68 88.72 493.92 92.44 491.68 95.72C489.44 98.92 486.8 101.72 483.76 104.12C480.8 106.44 477.6 108.32 474.16 109.76C472.24 110.64 470.4 111.32 468.64 111.8C466.96 112.28 465.2 112.64 463.36 112.88C461.6 113.12 459.64 113.28 457.48 113.36C455.32 113.44 452.84 113.48 450.04 113.48C448.84 113.48 447.56 113.44 446.2 113.36C444.84 113.36 443.48 113.32 442.12 113.24C440.76 113.16 439.4 113.08 438.04 113C436.76 113 435.52 113 434.32 113H413.92V111.32ZM537.092 66.32H548.132C550.372 66.32 552.412 66.04 554.252 65.48C556.092 64.92 557.652 63.96 558.932 62.6C560.292 61.16 561.332 59.24 562.052 56.84C562.772 54.44 563.132 51.4 563.132 47.72C563.132 43.56 562.572 40.24 561.452 37.76C560.412 35.2 559.012 33.28 557.252 32C555.572 30.72 553.652 29.88 551.492 29.48C549.412 29.08 547.332 28.88 545.252 28.88C543.812 28.88 542.332 28.92 540.812 29C539.372 29 538.132 29.08 537.092 29.24V66.32ZM511.772 111.32H525.092V29.24H511.772V27.56H534.572C535.532 27.56 536.492 27.56 537.452 27.56C538.412 27.48 539.372 27.4 540.332 27.32C541.292 27.32 542.252 27.32 543.212 27.32C544.172 27.24 545.132 27.2 546.092 27.2C550.812 27.2 554.972 27.48 558.572 28.04C562.172 28.52 565.532 30 568.652 32.48C571.452 34.64 573.412 37.08 574.532 39.8C575.732 42.52 576.332 45.08 576.332 47.48C576.332 48.68 576.092 50.24 575.612 52.16C575.212 54 574.252 55.92 572.732 57.92C571.292 59.84 569.172 61.64 566.372 63.32C563.572 64.92 559.852 66 555.212 66.56V66.8C556.492 66.96 558.212 67.28 560.372 67.76C562.612 68.16 564.852 68.88 567.092 69.92C569.412 70.96 571.532 72.36 573.452 74.12C575.372 75.8 576.732 78 577.532 80.72C578.012 82.32 578.332 84.16 578.492 86.24C578.732 88.24 578.892 90.32 578.972 92.48C579.132 94.64 579.252 96.72 579.332 98.72C579.492 100.72 579.732 102.4 580.052 103.76C580.532 105.84 581.292 107.72 582.332 109.4C583.372 111.08 585.052 111.92 587.372 111.92C588.412 111.92 589.492 111.72 590.612 111.32C591.732 110.92 592.732 110.28 593.612 109.4L594.692 110.72C594.292 111.04 593.812 111.4 593.252 111.8C592.772 112.12 592.132 112.44 591.332 112.76C590.532 113.08 589.532 113.32 588.332 113.48C587.212 113.72 585.812 113.84 584.132 113.84C580.932 113.84 578.252 113.44 576.092 112.64C574.012 111.84 572.332 110.68 571.052 109.16C569.772 107.56 568.812 105.64 568.172 103.4C567.612 101.08 567.212 98.4 566.972 95.36L566.132 84.44C565.812 80.44 565.012 77.32 563.732 75.08C562.452 72.84 560.932 71.2 559.172 70.16C557.492 69.12 555.732 68.52 553.892 68.36C552.052 68.12 550.452 68 549.092 68H537.092V111.32H550.412V113H511.772V111.32ZM646.133 4.88C647.733 2.95999 648.853 1.67999 649.493 1.04C650.213 0.399995 651.133 0.0799947 652.253 0.0799947C653.373 0.0799947 654.333 0.519994 655.133 1.39999C655.933 2.2 656.333 3.16 656.333 4.28C656.333 5.16 656.053 5.83999 655.493 6.31999C655.013 6.8 654.573 7.2 654.173 7.51999L633.653 22.16H631.973L646.133 4.88ZM598.373 111.32H611.693V29.24H598.373V27.56H667.013V48.32H665.693C664.653 45.2 663.533 42.48 662.333 40.16C661.133 37.76 659.693 35.76 658.013 34.16C656.333 32.48 654.333 31.24 652.013 30.44C649.693 29.64 646.893 29.24 643.613 29.24H623.693V66.32H631.493C634.133 66.32 636.373 66.08 638.213 65.6C640.053 65.12 641.613 64.24 642.893 62.96C644.253 61.6 645.373 59.8 646.253 57.56C647.213 55.24 648.133 52.28 649.013 48.68H650.333V86H649.013C648.453 83.68 647.853 81.44 647.213 79.28C646.653 77.12 645.813 75.2 644.693 73.52C643.653 71.84 642.213 70.52 640.373 69.56C638.613 68.52 636.293 68 633.413 68H623.693V111.32H646.373C650.773 111.32 654.413 110.4 657.293 108.56C660.253 106.64 662.653 104.4 664.493 101.84C666.333 99.2 667.693 96.48 668.573 93.68C669.453 90.88 670.013 88.56 670.253 86.72H671.573V113H598.373V111.32Z" fill="black"/>
</svg>
