<svg xmlns="http://www.w3.org/2000/svg" width="24" height="24" viewBox="0 0 24 24">
    <g fill="none" fill-rule="evenodd">
        <!-- <path fill="#D4D4D4" d="M-494-1483h6429v6351H-494z"/>
        <path fill="#FFF" d="M-326-294H49v812h-375z"/>
        <path fill="#000" d="M-326-294H49v812h-375v-812zm40 0H9c22.091 0 40 17.909 40 40v732c0 22.091-17.909 40-40 40h-295c-22.091 0-40-17.909-40-40v-732c0-22.091 17.909-40 40-40zm66.04 31h162.92c12.703 0 23-10.297 23-23 0-.009-.001-1.285-.006-3.83 0-.093.016-.184.048-.27a5.86 5.86 0 0 1 4.106-3.684L-29-294h-219l.892.216c1.888.458 3.441 1.87 4.112 3.684.015.04.029.086.042.137l-.007 3.924c0 12.742 10.298 23.039 23 23.039z"/>
        <path d="M-326-12H49v48h-375z"/>
        <path d="M-318-12H41v48h-359z"/> -->
        <!-- <path fill="#FFF" stroke="#DADCE1" d="M-307.436-5.5c-.737 0-1.017.054-1.305.208a1.317 1.317 0 0 0-.551.551c-.154.288-.208.568-.208 1.305v30.872c0 .737.054 1.017.208 1.305.128.239.312.423.551.551.288.154.568.208 1.305.208H30.436c.737 0 1.017-.054 1.305-.208.239-.128.423-.312.551-.551.154-.288.208-.568.208-1.305V-3.436c0-.737-.054-1.017-.208-1.305a1.317 1.317 0 0 0-.551-.551c-.288-.154-.568-.208-1.305-.208h-337.872z"/> -->
        <text fill="#DADCE1" font-family="SFProText-Regular, SF Pro Text" font-size="12" transform="translate(-318 -12)">
            <tspan x="16" y="28">Пароль</tspan>
        </text>
        <g fill-rule="nonzero">
            <path d="M0 0h24v24H0z"/>
            <g stroke="#1B1B1B" stroke-linecap="round">
                <path d="M20.13 11.298l1.415 1.414M16.459 14.106l.876 1.798M21 9c-4.486 8-13.514 8-18 0M12 15v2"/>
                <g>
                    <path d="M3.87 11.298l-1.415 1.414M7.541 14.106l-.876 1.798"/>
                </g>
            </g>
        </g>
    </g>
</svg>
