<svg xmlns="http://www.w3.org/2000/svg" version="1.1" xmlns:xlink="http://www.w3.org/1999/xlink" xmlns:svgjs="http://svgjs.com/svgjs" viewBox="0 0 140 140" width="140" height="140"><g transform="matrix(5.833333333333333,0,0,5.833333333333333,0,0)"><path d="M3.000 18.000 A2.000 2.000 0 1 0 7.000 18.000 A2.000 2.000 0 1 0 3.000 18.000 Z" fill="none" stroke="currentColor" stroke-linecap="round" stroke-linejoin="round"></path><path d="M17.000 18.000 A2.000 2.000 0 1 0 21.000 18.000 A2.000 2.000 0 1 0 17.000 18.000 Z" fill="none" stroke="currentColor" stroke-linecap="round" stroke-linejoin="round"></path><path d="M3,18H1.5a1,1,0,0,1-1-1V13.015A1,1,0,0,1,.919,12.2L4,11l.811-4.243A1,1,0,0,1,5.781,6H9.5V5a1,1,0,0,1,1-1h12a1,1,0,0,1,1,1V17a1,1,0,0,1-1,1H21" fill="none" stroke="currentColor" stroke-linecap="round" stroke-linejoin="round"></path><path d="M7 18L17 18" fill="none" stroke="currentColor" stroke-linecap="round" stroke-linejoin="round"></path><path d="M9.5 6L9.5 16" fill="none" stroke="currentColor" stroke-linecap="round" stroke-linejoin="round"></path><path d="M0.5 15L2 15" fill="none" stroke="currentColor" stroke-linecap="round" stroke-linejoin="round"></path><path d="M4 11L9.5 11" fill="none" stroke="currentColor" stroke-linecap="round" stroke-linejoin="round"></path></g></svg>