<svg xmlns="http://www.w3.org/2000/svg" version="1.1" xmlns:xlink="http://www.w3.org/1999/xlink" xmlns:svgjs="http://svgjs.com/svgjs" viewBox="0 0 140 140" width="140" height="140"><g transform="matrix(5.833333333333333,0,0,5.833333333333333,0,0)"><path d="M0.503 0.500 L23.503 0.500 L23.503 23.500 L0.503 23.500 Z" fill="none" stroke="currentColor" stroke-linecap="round" stroke-linejoin="round"></path><path d="M3.5,6.5a3,3,0,0,0,3,3h11a3,3,0,0,0,0-6H6.5A3,3,0,0,0,3.5,6.5Z" fill="none" stroke="currentColor" stroke-linecap="round" stroke-linejoin="round"></path><path d="M3.5,17.5a3,3,0,0,0,3,3h11a3,3,0,0,0,0-6H6.5A3,3,0,0,0,3.5,17.5Z" fill="none" stroke="currentColor" stroke-linecap="round" stroke-linejoin="round"></path><path d="M3.503 6.500 A3.000 3.000 0 1 0 9.503 6.500 A3.000 3.000 0 1 0 3.503 6.500 Z" fill="none" stroke="currentColor" stroke-linecap="round" stroke-linejoin="round"></path><path d="M14.503 17.500 A3.000 3.000 0 1 0 20.503 17.500 A3.000 3.000 0 1 0 14.503 17.500 Z" fill="none" stroke="currentColor" stroke-linecap="round" stroke-linejoin="round"></path></g></svg>