<svg xmlns="http://www.w3.org/2000/svg" version="1.1" xmlns:xlink="http://www.w3.org/1999/xlink" xmlns:svgjs="http://svgjs.com/svgjs" viewBox="0 0 140 140" width="140" height="140"><g transform="matrix(5.833333333333333,0,0,5.833333333333333,0,0)"><path d="M13.452,2.771,16.421.79a.8.8,0,0,1,1.24.639L17.8,6.071l-4.232-1.91A.8.8,0,0,1,13.452,2.771Z" fill="none" stroke="currentColor" stroke-linecap="round" stroke-linejoin="round"></path><path d="M19.178,11.352l2.969-1.981a.8.8,0,0,0-.115-1.391L17.8,6.071l.139,4.641A.8.8,0,0,0,19.178,11.352Z" fill="none" stroke="currentColor" stroke-linecap="round" stroke-linejoin="round"></path><path d="M20.637,1.409l2.275,2.75a.8.8,0,0,1-.51,1.3l-4.6.613,1.467-4.406A.8.8,0,0,1,20.637,1.409Z" fill="none" stroke="currentColor" stroke-linecap="round" stroke-linejoin="round"></path><path d="M12.687,7.982l2.274,2.751a.8.8,0,0,0,1.372-.257L17.8,6.071l-4.6.612A.8.8,0,0,0,12.687,7.982Z" fill="none" stroke="currentColor" stroke-linecap="round" stroke-linejoin="round"></path><path d="M14.465 10.133L8.894 14.346" fill="none" stroke="currentColor" stroke-linecap="round" stroke-linejoin="round"></path><path d="M6.89 12.922L12.97 8.325" fill="none" stroke="currentColor" stroke-linecap="round" stroke-linejoin="round"></path><path d="M11.508,5.015c-2.434-3.034-8.361-2.753-10.4.019C0,6.555.434,8.39,2.2,9.591l9.511,6.755a.5.5,0,0,0,.58,0l5.076-3.605" fill="none" stroke="currentColor" stroke-linecap="round" stroke-linejoin="round"></path><path d="M23.5,11.346v1.881a4,4,0,0,1-1.684,3.261L12.29,23.253a.5.5,0,0,1-.58,0L2.184,16.488A4,4,0,0,1,.5,13.227V6.667" fill="none" stroke="currentColor" stroke-linecap="round" stroke-linejoin="round"></path></g></svg>