<svg xmlns="http://www.w3.org/2000/svg" version="1.1" xmlns:xlink="http://www.w3.org/1999/xlink" xmlns:svgjs="http://svgjs.com/svgjs" viewBox="0 0 140 140" width="140" height="140"><g transform="matrix(5.833333333333333,0,0,5.833333333333333,0,0)"><path d="M3.457 20.500 A3.000 3.000 0 1 0 9.457 20.500 A3.000 3.000 0 1 0 3.457 20.500 Z" fill="none" stroke="currentColor" stroke-linecap="round" stroke-linejoin="round"></path><path d="M7.457,17.688V1.5a1,1,0,0,0-1-1h-2" fill="none" stroke="currentColor" stroke-linecap="round" stroke-linejoin="round"></path><path d="M9.27,21.5h8.785a1,1,0,0,1,.692.278l1.8,1.722" fill="none" stroke="currentColor" stroke-linecap="round" stroke-linejoin="round"></path><path d="M11.457,19.5h7a1,1,0,0,0,1-1v-7a1,1,0,0,0-1-1h-9V16" fill="none" stroke="currentColor" stroke-linecap="round" stroke-linejoin="round"></path><path d="M16.457,6.5a1,1,0,0,0-1-1h-5a1,1,0,0,0-1,1v4h7Z" fill="none" stroke="currentColor" stroke-linecap="round" stroke-linejoin="round"></path><path d="M17.457 17.5L15.457 17.5" fill="none" stroke="currentColor" stroke-linecap="round" stroke-linejoin="round"></path><path d="M12.457 8.5L11.457 8.5" fill="none" stroke="currentColor" stroke-linecap="round" stroke-linejoin="round"></path></g></svg>