<svg xmlns="http://www.w3.org/2000/svg" version="1.1" xmlns:xlink="http://www.w3.org/1999/xlink" xmlns:svgjs="http://svgjs.com/svgjs" viewBox="0 0 140 140" width="140" height="140"><g transform="matrix(5.833333333333333,0,0,5.833333333333333,0,0)"><path d="M16.749 11L12.249 14.5 16.749 18" fill="none" stroke="currentColor" stroke-linecap="round" stroke-linejoin="round"></path><path d="M12.249,14.5h3.5a6,6,0,0,1,6,6v2" fill="none" stroke="currentColor" stroke-linecap="round" stroke-linejoin="round"></path><path d="M8.25,16.5h-5a1,1,0,0,1-1-1V5.914a1,1,0,0,1,.293-.707L5.958,1.793A1,1,0,0,1,6.665,1.5h5.171a1,1,0,0,1,.707.293l3.415,3.414a1,1,0,0,1,.292.707V7.5" fill="none" stroke="currentColor" stroke-linecap="round" stroke-linejoin="round"></path><path d="M9.25 1.5L9.25 5.5" fill="none" stroke="currentColor" stroke-linecap="round" stroke-linejoin="round"></path><path d="M16.16 5.5L2.34 5.5" fill="none" stroke="currentColor" stroke-linecap="round" stroke-linejoin="round"></path></g></svg>