<svg id="cart" version="1.1" xmlns="http://www.w3.org/2000/svg" xmlns:xlink="http://www.w3.org/1999/xlink" x="0px" y="0px" width="21px" height="23px" viewBox="0 0 21 23" xml:space="preserve">
	<g fill="#2b2b2b">
		<path d="M19.136,6.053c-0.026-0.326-0.293-0.579-0.619-0.589h-2.801c-0.224-2.76-2.486-4.912-5.254-5c-2.768,0.088-5.029,2.24-5.254,5H2.489c-0.327,0.01-0.594,0.263-0.62,0.589L0.116,21.79c-0.021,0.188,0.034,0.376,0.153,0.522c0.114,0.14,0.285,0.223,0.466,0.224h19.53c0.181-0.001,0.352-0.084,0.466-0.224c0.119-0.146,0.174-0.334,0.153-0.522L19.136,6.053z M10.466,1.798h0.003c2.056,0.062,3.756,1.622,3.994,3.666h-7.99C6.711,3.42,8.41,1.86,10.466,1.798z M1.442,21.197l1.6-14.4h2.757h12.163l1.6,14.4H1.442z"></path>
	</g>
</svg>
