<svg width="48" height="48" viewBox="0 0 48 48" fill="none" xmlns="http://www.w3.org/2000/svg">
<path fill-rule="evenodd" clip-rule="evenodd" d="M19.0075 0.469544C12.894 1.67004 5.988 6.81054 3.0285 12.364C-1.0095 19.9395 -1.0095 27.9175 3.0285 35.493C5.0855 39.3525 9.6 43.5815 13.7225 45.5105C18.057 47.539 23.3555 48.3195 27.7175 47.5725C32.3505 46.779 36.99 44.4415 40.413 41.1765C46.677 35.2015 49.307 26.336 47.2075 18.275C46.1055 14.0435 44.1725 10.584 41.1255 7.38954C35.4525 1.44204 27.201 -1.13996 19.0075 0.469544ZM31.6255 4.41204C35.194 5.78404 39.0495 8.85755 41.2875 12.114C42.208 13.453 43.438 16.118 44.02 18.035C44.8355 20.72 45.0215 22.3435 44.829 25.1C44.512 29.6385 42.918 33.8235 40.275 37.0555C37.5215 40.4235 34.091 42.706 29.847 43.995C27.162 44.8105 25.5385 44.9965 22.782 44.804C18.2435 44.487 14.0585 42.893 10.8265 40.25C7.4585 37.4965 5.176 34.066 3.887 29.822C3.0715 27.137 2.8855 25.5135 3.078 22.757C3.395 18.2185 4.989 14.0335 7.632 10.8015C10.2655 7.58055 13.72 5.20654 17.6295 3.93004C21.6575 2.61454 27.4705 2.81504 31.6255 4.41204Z" fill="black"/>
</svg>
