<svg xmlns="http://www.w3.org/2000/svg" version="1.1" xmlns:xlink="http://www.w3.org/1999/xlink" xmlns:svgjs="http://svgjs.com/svgjs" viewBox="0 0 140 140" width="140" height="140"><g transform="matrix(5.833333333333333,0,0,5.833333333333333,0,0)"><path d="M1.311,20.479,11.123,2.561a1,1,0,0,1,1.754,0l9.812,17.918a1,1,0,0,1-.877,1.48H2.188A1,1,0,0,1,1.311,20.479Z" fill="none" stroke="currentColor" stroke-linecap="round" stroke-linejoin="round"></path><path d="M12 9.459L12 15.959" fill="none" stroke="currentColor" stroke-linecap="round" stroke-linejoin="round"></path><path d="M12,18.209a.25.25,0,0,1,.25.25" fill="none" stroke="currentColor" stroke-linecap="round" stroke-linejoin="round"></path><path d="M11.75,18.459a.25.25,0,0,1,.25-.25" fill="none" stroke="currentColor" stroke-linecap="round" stroke-linejoin="round"></path><path d="M12,18.709a.25.25,0,0,1-.25-.25" fill="none" stroke="currentColor" stroke-linecap="round" stroke-linejoin="round"></path><path d="M12.25,18.459a.25.25,0,0,1-.25.25" fill="none" stroke="currentColor" stroke-linecap="round" stroke-linejoin="round"></path></g></svg>