<svg width="636" height="111" viewBox="0 0 636 111" fill="none" xmlns="http://www.w3.org/2000/svg">
<path d="M0.48 109H70.44V83.92H69.24C66.72 95.44 61.56 102.76 53.76 105.88C50.88 106.96 46.68 107.56 41.16 107.56H24.6V28.84H37.32V27.4H0.48V28.84H13.2V107.56H0.48V109ZM14.64 107.56V28.84H18.84V107.56H14.64ZM54.36 107.56C59.64 105.16 63.84 101.44 66.84 96.04V107.56H54.36ZM75.1556 109H99.7556V107.56H87.1556L99.3956 75.52H125.796L137.916 107.56H125.196V109H160.476V107.56H150.276L119.076 25.36H116.316L85.3556 107.56H75.1556V109ZM139.476 107.56L113.196 38.68L115.476 32.56L144.156 107.56H139.476ZM99.8756 73.84L112.476 40.6L125.196 73.84H99.8756ZM187.674 110.92H190.674L221.394 28.84H231.834V27.4H207.114V28.84H219.714L194.394 96.04L168.834 28.84H181.554V27.4H146.154V28.84H156.594L187.674 110.92ZM188.874 109.48L158.154 28.84H162.834L191.394 103.84L189.234 109.48H188.874ZM216.484 109H241.084V107.56H228.484L240.724 75.52H267.124L279.244 107.56H266.524V109H301.804V107.56H291.604L260.404 25.36H257.644L226.684 107.56H216.484V109ZM280.804 107.56L254.524 38.68L256.804 32.56L285.484 107.56H280.804ZM241.204 73.84L253.804 40.6L266.524 73.84H241.204ZM372.713 110.8H374.993V28.84H387.713V27.4H360.473V28.84H373.193V89.92L334.193 27.4H309.833V28.84H322.553V107.56H309.833V109H337.073V107.56H324.353V33.64L372.713 110.8ZM373.193 108.28L324.353 30.16V28.84H328.913L373.193 99.16V108.28ZM428.804 109.72C433.844 109.72 438.404 109.36 442.364 108.64C460.244 105.64 474.764 90.4 474.764 68.2C474.764 58.6 472.484 50.56 467.924 44.08C461.204 34 448.964 26.92 428.444 26.92C426.884 26.92 423.644 27.04 418.484 27.16C415.844 27.28 413.804 27.28 412.244 27.28C410.684 27.4 409.724 27.4 409.364 27.4H393.644V28.84H406.364V107.56H393.644V109H409.364C411.644 109 414.644 109.12 418.364 109.36C423.044 109.6 426.524 109.72 428.804 109.72ZM429.044 108.16C425.324 108.16 421.724 107.92 417.764 107.56V28.84C421.964 28.6 425.444 28.48 428.204 28.48C434.324 28.48 439.244 29.32 442.964 30.88C450.284 33.76 455.444 39.28 458.204 47.44C460.484 54.16 461.564 61 461.564 68.68C461.564 74.8 460.724 80.68 459.164 86.44C455.804 99.04 447.164 108.16 429.044 108.16ZM407.804 107.56V28.84H412.004V107.56H407.804ZM446.684 106C448.604 104.68 450.044 103.84 450.884 103C459.044 95.8 463.124 84.4 463.124 68.68C463.124 52.96 459.044 40.72 451.004 33.88C449.924 32.8 448.244 31.72 446.204 30.64C451.844 32.68 456.764 36.52 460.964 42.16C465.644 48.76 468.044 57.52 468.044 68.32C468.044 74.68 467.084 80.56 465.284 85.96C461.444 96.88 454.364 102.64 446.684 106ZM551.584 110.08C554.104 110.08 556.264 109.72 558.064 109.12C559.384 108.76 560.704 107.92 562.024 106.96L560.944 105.64C559.144 107.2 557.224 107.92 555.184 107.92C552.304 107.92 550.264 106.6 549.064 103.96C547.984 101.8 547.384 97.48 547.144 91C547.024 88.84 547.024 87.04 546.904 85.6C546.784 84.16 546.784 83.08 546.784 82.48C546.424 79 544.984 75.88 542.464 73.12C538.264 68.68 532.264 65.92 524.224 65.08V64.48C526.744 64.12 528.904 63.76 530.464 63.16C539.224 60.64 544.384 54.28 544.384 46.24C544.384 42.76 543.304 39.4 541.144 36.4C539.224 34.12 536.704 32.08 533.704 30.28C529.624 28.12 523.744 27.04 516.184 27.04H513.544C512.104 27.16 510.184 27.16 507.784 27.28C505.744 27.4 504.064 27.4 502.744 27.4H500.104H482.824V28.84H495.544V107.56H482.824V109H519.664V107.56H506.944V65.8H518.464C522.184 65.8 525.184 66.4 527.224 67.48C530.464 69.28 532.624 72.04 533.704 76.36C534.184 78.64 534.664 82.24 535.024 86.92C535.504 94.48 536.344 99.28 537.304 102.04C539.464 107.44 544.264 110.08 551.584 110.08ZM506.944 64.36V28.84C510.664 28.72 513.544 28.6 515.944 28.6C526.024 28.6 531.784 33.64 531.784 46.48C531.784 49.72 531.424 52.96 530.464 55.84C527.704 63.4 523.384 64.36 517.144 64.36H506.944ZM496.984 107.56V28.84H501.184V107.56H496.984ZM528.064 62.44C531.544 59.56 533.344 54.4 533.344 46.84C533.344 39.76 531.664 34.48 528.184 31.24C527.224 30.28 525.904 29.44 524.344 28.84C528.664 29.68 531.664 31.24 533.944 33.76C536.704 37.24 538.144 41.44 538.144 46.48C538.144 55.48 533.344 60.4 528.064 62.44ZM552.064 108.52C549.784 108.4 547.984 108.04 546.424 107.68C537.664 105.76 537.064 97.72 536.584 86.8C536.104 80.2 535.384 75.76 534.424 73.48C533.224 70.72 531.784 68.68 530.224 67.6C537.064 69.52 540.664 76 541.024 86.92L541.384 91.96C541.384 93.28 541.384 94.12 541.504 94.6C541.984 101.68 544.024 106.96 552.064 108.52ZM597.718 21.88H599.158L618.958 7.95999C620.278 7 620.878 5.92 620.878 4.72C620.878 2.31999 618.598 0.759992 616.798 0.759992C615.838 0.759992 614.998 1.11999 614.158 1.83999C614.038 1.96 613.678 2.31999 613.198 2.91999L611.158 5.44L597.718 21.88ZM602.518 18.04L612.118 6.15999C613.078 4.95999 613.918 4.12 614.758 3.51999C615.598 2.91999 616.198 2.68 616.678 2.68C617.998 2.68 618.838 3.27999 618.838 4.72C618.838 5.55999 618.238 6.4 617.158 7.23999L602.518 18.04ZM565.558 109H635.398V83.92H634.198C633.598 87.64 632.278 91.24 630.478 94.72C624.118 106.36 617.158 107.56 608.518 107.56H589.678V66.16H598.918C600.958 66.16 602.518 66.28 603.478 66.64C605.878 67.12 607.798 68.56 609.358 70.84C611.158 73.36 612.718 77.44 613.918 83.2H615.118V47.56H613.918C611.638 58.6 608.038 64.96 598.918 64.6H589.678V28.84H608.878C619.318 28.48 626.278 34.6 629.638 47.2H630.958V27.4H565.558V28.84H578.278V107.56H565.558V109ZM579.718 107.56V28.84H583.918V107.56H579.718ZM627.238 36.88C624.718 33.16 621.718 30.4 617.878 28.84H627.238V36.88ZM611.518 71.32C609.238 67.6 606.598 65.68 603.598 65.32C604.558 65.2 605.638 64.72 606.598 64.24C608.638 62.92 610.198 61.24 611.518 59.32V71.32ZM619.438 107.56C624.598 105.16 628.558 101.44 631.798 96.04V107.56H619.438Z" fill="black"/>
</svg>
