<svg xmlns="http://www.w3.org/2000/svg" version="1.1" xmlns:xlink="http://www.w3.org/1999/xlink" xmlns:svgjs="http://svgjs.com/svgjs" viewBox="0 0 140 140" width="140" height="140"><g transform="matrix(5.833333333333333,0,0,5.833333333333333,0,0)"><path d="M11.500 17.500 A6.000 6.000 0 1 0 23.500 17.500 A6.000 6.000 0 1 0 11.500 17.500 Z" fill="none" stroke="currentColor" stroke-linecap="round" stroke-linejoin="round"></path><path d="M17.5 14.5L17.5 20.5" fill="none" stroke="currentColor" stroke-linecap="round" stroke-linejoin="round"></path><path d="M17.5 20.5L15.25 18.25" fill="none" stroke="currentColor" stroke-linecap="round" stroke-linejoin="round"></path><path d="M17.5 20.5L19.75 18.25" fill="none" stroke="currentColor" stroke-linecap="round" stroke-linejoin="round"></path><path d="M10.5,23.5h-9a1,1,0,0,1-1-1V1.5a1,1,0,0,1,1-1H14.793A1,1,0,0,1,15.5.793L19.207,4.5a1,1,0,0,1,.293.707V8.5" fill="none" stroke="currentColor" stroke-linecap="round" stroke-linejoin="round"></path></g></svg>